<svg width="26" height="25" viewBox="0 0 26 25" fill="none" xmlns="http://www.w3.org/2000/svg">
<path d="M21.0045 25H4.11233C3.57229 25 3.03754 24.9023 2.53861 24.7124C2.03968 24.5225 1.58634 24.2442 1.20447 23.8934C0.822608 23.5425 0.519696 23.126 0.313032 22.6676C0.106369 22.2092 0 21.7179 0 21.2217V12.0027C0.0010021 11.4841 0.118378 10.9712 0.344797 10.4962C0.571216 10.0211 0.901814 9.59406 1.31594 9.24166L9.78734 1.02825C10.5433 0.373875 11.5408 0.00655645 12.5794 8.6928e-05C13.618 -0.00638259 14.6209 0.348475 15.3864 0.993378C15.4307 1.02825 23.7692 9.20097 23.8135 9.24747C24.2241 9.59933 24.5516 10.0249 24.7758 10.4979C25 10.9708 25.1161 11.481 25.1168 11.9969V21.2217C25.1168 21.7179 25.0105 22.2092 24.8038 22.6676C24.5971 23.126 24.2942 23.5425 23.9124 23.8934C23.5305 24.2442 23.0771 24.5225 22.5782 24.7124C22.0793 24.9023 21.5445 25 21.0045 25ZM11.1412 2.25474L2.66985 10.4623C2.4285 10.6532 2.23466 10.8896 2.10149 11.1554C1.96831 11.4211 1.89891 11.7101 1.898 12.0027V21.2217C1.89883 21.4881 1.95676 21.7518 2.06849 21.9976C2.18022 22.2434 2.34356 22.4666 2.54918 22.6545C2.7548 22.8423 2.99867 22.9911 3.26688 23.0924C3.53508 23.1936 3.82237 23.2453 4.11233 23.2446H21.0045C21.2945 23.2453 21.5817 23.1936 21.8499 23.0924C22.1182 22.9911 22.362 22.8423 22.5676 22.6545C22.7733 22.4666 22.9366 22.2434 23.0483 21.9976C23.1601 21.7518 23.218 21.4881 23.2188 21.2217V11.9969C23.219 11.7055 23.1507 11.4176 23.0186 11.1527C22.8865 10.8879 22.6937 10.6524 22.4533 10.4623L14.0768 2.26056C13.6733 1.92923 13.1514 1.74559 12.6102 1.74452C12.0691 1.74345 11.5463 1.92502 11.1412 2.25474Z" fill="black"/>
</svg>
